mtllib casing.mtl
g casing:module.X_POS
v 1.000000 0.062500 0.062500
v 1.000000 0.937500 0.062500
v 1.000000 0.062500 0.937500
v 1.000000 0.937500 0.937500
v 0.937500 0.062500 0.062500
v 0.937500 0.937500 0.062500
v 0.937500 0.062500 0.937500
v 0.937500 0.937500 0.937500
vt 0.937500 0.937500
vt 0.062500 0.937500
vt 0.062500 0.062500
vt 0.937500 0.062500
vt 0.062500 1.000000
vt 0.000000 1.000000
vt 0.000000 0.000000
vt 0.062500 0.000000
vt 1.000000 0.062500
vt 0.000000 0.062500
vt 1.000000 0.000000
vn 1.000000 0.000000 -0.000000
vn 0.000000 0.000000 1.000000
vn -1.000000 0.000000 0.000000
vn -0.000000 0.000000 -1.000000
vn 0.000000 -1.000000 0.000000
vn 0.000000 1.000000 0.000000
usemtl casing:Module
s off
f 2/1/1 4/2/1 3/3/1 1/4/1
f 4/5/2 8/6/2 7/7/2 3/8/2
f 8/1/3 6/2/3 5/3/3 7/4/3
f 6/5/4 2/6/4 1/7/4 5/8/4
f 1/9/5 3/10/5 7/7/5 5/11/5
f 6/9/6 8/10/6 4/7/6 2/11/6
g casing:module.Y_NEG
v 0.062500 0.062500 0.937500
v 0.937500 0.062500 0.937500
v 0.062500 0.062500 0.062500
v 0.937500 0.062500 0.062500
v 0.062500 0.000000 0.937500
v 0.937500 -0.000000 0.937500
v 0.062500 0.000000 0.062500
v 0.937500 -0.000000 0.062500
vt 0.937500 0.937500
vt 0.062500 0.937500
vt 0.062500 0.062500
vt 0.937500 0.062500
vt 0.062500 1.000000
vt 0.000000 1.000000
vt 0.000000 0.000000
vt 0.062500 0.000000
vt 1.000000 0.062500
vt 0.000000 0.062500
vt 1.000000 0.000000
vn 0.000000 1.000000 -0.000000
vn -0.000000 0.000000 -1.000000
vn -0.000000 -1.000000 0.000000
vn 0.000000 0.000000 1.000000
vn -1.000000 0.000000 0.000000
vn 1.000000 0.000000 -0.000000
usemtl casing:Module
s off
f 10/12/7 12/13/7 11/14/7 9/15/7
f 12/16/8 16/17/8 15/18/8 11/19/8
f 16/12/9 14/13/9 13/14/9 15/15/9
f 14/16/10 10/17/10 9/18/10 13/19/10
f 9/20/11 11/21/11 15/18/11 13/22/11
f 14/20/12 16/21/12 12/18/12 10/22/12
g casing:module.Z_NEG
v 0.062500 0.062500 0.000000
v 0.062500 0.937500 0.000000
v 0.937500 0.062500 -0.000000
v 0.937500 0.937500 -0.000000
v 0.062500 0.062500 0.062500
v 0.062500 0.937500 0.062500
v 0.937500 0.062500 0.062500
v 0.937500 0.937500 0.062500
vt 0.937500 0.937500
vt 0.062500 0.937500
vt 0.062500 0.062500
vt 0.937500 0.062500
vt 0.062500 1.000000
vt 0.000000 1.000000
vt 0.000000 0.000000
vt 0.062500 0.000000
vt 1.000000 0.062500
vt 0.000000 0.062500
vt 1.000000 0.000000
vn -0.000000 0.000000 -1.000000
vn 1.000000 0.000000 0.000000
vn 0.000000 0.000000 1.000000
vn -1.000000 0.000000 0.000000
vn 0.000000 -1.000000 0.000000
vn 0.000000 1.000000 0.000000
usemtl casing:Module
s off
f 18/23/13 20/24/13 19/25/13 17/26/13
f 20/27/14 24/28/14 23/29/14 19/30/14
f 24/23/15 22/24/15 21/25/15 23/26/15
f 22/27/16 18/28/16 17/29/16 21/30/16
f 17/31/17 19/32/17 23/29/17 21/33/17
f 22/31/18 24/32/18 20/29/18 18/33/18
g casing:module.Z_POS
v 0.062500 0.062500 0.937500
v 0.062500 0.937500 0.937500
v 0.937500 0.062500 0.937500
v 0.937500 0.937500 0.937500
v 0.062500 0.062500 1.000000
v 0.062500 0.937500 1.000000
v 0.937500 0.062500 1.000000
v 0.937500 0.937500 1.000000
vt 0.937500 0.937500
vt 0.062500 0.937500
vt 0.062500 0.062500
vt 0.937500 0.062500
vt 0.062500 1.000000
vt 0.000000 1.000000
vt 0.000000 0.000000
vt 0.062500 0.000000
vt 1.000000 0.062500
vt 0.000000 0.062500
vt 1.000000 0.000000
vn 0.000000 0.000000 -1.000000
vn 1.000000 0.000000 0.000000
vn 0.000000 0.000000 1.000000
vn -1.000000 0.000000 0.000000
vn 0.000000 -1.000000 0.000000
vn 0.000000 1.000000 0.000000
usemtl casing:Module
s off
f 26/34/19 28/35/19 27/36/19 25/37/19
f 28/38/20 32/39/20 31/40/20 27/41/20
f 32/34/21 30/35/21 29/36/21 31/37/21
f 30/38/22 26/39/22 25/40/22 29/41/22
f 25/42/23 27/43/23 31/40/23 29/44/23
f 30/42/24 32/43/24 28/40/24 26/44/24
g casing:module.Y_POS
v 0.937500 1.000000 0.062500
v 0.062500 1.000000 0.062500
v 0.937500 1.000000 0.937500
v 0.062500 1.000000 0.937500
v 0.937500 0.937500 0.062500
v 0.062500 0.937500 0.062500
v 0.937500 0.937500 0.937500
v 0.062500 0.937500 0.937500
vt 0.937500 0.937500
vt 0.062500 0.937500
vt 0.062500 0.062500
vt 0.937500 0.062500
vt 0.062500 1.000000
vt 0.000000 1.000000
vt 0.000000 0.000000
vt 0.062500 0.000000
vt 1.000000 0.062500
vt 0.000000 0.062500
vt 1.000000 0.000000
vn 0.000000 1.000000 0.000000
vn 0.000000 0.000000 1.000000
vn -0.000000 -1.000000 0.000000
vn 0.000000 0.000000 -1.000000
vn 1.000000 0.000000 0.000000
vn -1.000000 0.000000 0.000000
usemtl casing:Module
s off
f 34/45/25 36/46/25 35/47/25 33/48/25
f 36/49/26 40/50/26 39/51/26 35/52/26
f 40/45/27 38/46/27 37/47/27 39/48/27
f 38/49/28 34/50/28 33/51/28 37/52/28
f 33/53/29 35/54/29 39/51/29 37/55/29
f 38/53/30 40/54/30 36/51/30 34/55/30
g casing:module.X_NEG
v 0.062500 0.062500 0.062500
v 0.062500 0.937500 0.062500
v 0.062500 0.062500 0.937500
v 0.062500 0.937500 0.937500
v 0.000000 0.062500 0.062500
v 0.000000 0.937500 0.062500
v 0.000000 0.062500 0.937500
v 0.000000 0.937500 0.937500
vt 0.937500 0.937500
vt 0.062500 0.937500
vt 0.062500 0.062500
vt 0.937500 0.062500
vt 0.062500 1.000000
vt 0.000000 1.000000
vt 0.000000 0.000000
vt 0.062500 0.000000
vt 1.000000 0.062500
vt 0.000000 0.062500
vt 1.000000 0.000000
vn 1.000000 0.000000 0.000000
vn 0.000000 0.000000 1.000000
vn -1.000000 0.000000 0.000000
vn 0.000000 0.000000 -1.000000
vn 0.000000 -1.000000 0.000000
vn 0.000000 1.000000 0.000000
usemtl casing:Module
s off
f 42/56/31 44/57/31 43/58/31 41/59/31
f 44/60/32 48/61/32 47/62/32 43/63/32
f 48/56/33 46/57/33 45/58/33 47/59/33
f 46/60/34 42/61/34 41/62/34 45/63/34
f 41/64/35 43/65/35 47/62/35 45/66/35
f 46/64/36 48/65/36 44/62/36 42/66/36
g casing:casing
v 0.250000 1.000000 0.000000
v 1.000000 1.000000 0.250000
v 1.000000 1.000000 0.750000
v 1.000000 1.000000 1.000000
v 0.937500 1.000000 1.000000
v 0.000000 1.000000 0.937500
v 0.250000 1.000000 0.937500
v 0.750000 1.000000 0.937500
v 0.062500 1.000000 0.750000
v 0.062500 1.000000 0.937500
v 0.062500 1.000000 0.250000
v 1.000000 1.000000 0.062500
v 0.250000 1.000000 0.062500
v 0.062500 1.000000 0.062500
v 0.750000 1.000000 0.062500
v 0.937500 1.000000 0.750000
v 0.937500 1.000000 0.250000
v 0.937500 1.000000 0.937500
v 0.937500 1.000000 0.062500
v 0.250000 0.937500 0.937500
v 0.250000 0.937500 0.750000
v 0.250000 0.937500 0.250000
v 0.750000 0.937500 0.937500
v 0.750000 0.937500 0.750000
v 0.750000 0.937500 0.250000
v 0.937500 0.937500 0.250000
v 0.937500 0.937500 0.937500
v 0.250000 0.875000 0.750000
v 0.250000 0.875000 0.250000
v 0.750000 0.875000 0.750000
v 0.750000 0.875000 0.250000
v 0.000000 1.000000 0.000000
v 0.000000 0.000000 0.000000
v 0.000000 0.750000 0.000000
v 0.000000 0.250000 0.000000
v 0.750000 1.000000 0.000000
v 0.750000 0.000000 0.000000
v 1.000000 1.000000 0.000000
v 0.937500 1.000000 0.000000
v 0.250000 0.937500 0.000000
v 1.000000 0.937500 0.000000
v 0.750000 0.937500 0.000000
v 0.062500 0.750000 0.000000
v 0.062500 0.000000 0.000000
v 0.062500 1.000000 0.000000
v 0.062500 0.937500 0.000000
v 0.062500 0.250000 0.000000
v 0.000000 0.062500 0.000000
v 1.000000 0.062500 0.000000
v 0.250000 0.062500 0.000000
v 0.062500 0.062500 0.000000
v 0.750000 0.062500 0.000000
v 0.937500 0.750000 0.000000
v 0.937500 0.250000 0.000000
v 0.937500 0.937500 0.000000
v 0.937500 0.062500 0.000000
v 0.250000 0.937500 0.062500
v 0.250000 0.750000 0.062500
v 0.250000 0.250000 0.062500
v 0.750000 0.937500 0.062500
v 0.750000 0.750000 0.062500
v 0.750000 0.250000 0.062500
v 0.937500 0.750000 0.062500
v 0.062500 0.937500 0.062500
v 0.062500 0.750000 0.062500
v 0.062500 0.250000 0.062500
v 0.250000 0.062500 0.062500
v 0.750000 0.062500 0.062500
v 0.250000 0.750000 0.125000
v 0.250000 0.250000 0.125000
v 0.750000 0.750000 0.125000
v 0.750000 0.250000 0.125000
v 0.000000 1.000000 0.750000
v 0.000000 1.000000 0.250000
v 0.000000 1.000000 0.062500
v 0.000000 0.937500 0.750000
v 0.000000 0.937500 0.000000
v 0.000000 0.937500 0.250000
v 0.000000 0.750000 0.937500
v 0.000000 0.000000 0.937500
v 0.000000 0.937500 0.937500
v 0.000000 0.250000 0.937500
v 0.000000 0.062500 1.000000
v 0.000000 0.062500 0.750000
v 0.000000 0.062500 0.937500
v 0.000000 0.062500 0.250000
v 0.000000 0.750000 0.062500
v 0.000000 0.250000 0.062500
v 0.000000 0.000000 0.062500
v 0.000000 0.937500 0.062500
v 0.000000 0.062500 0.062500
v 0.062500 0.937500 0.750000
v 0.062500 0.750000 0.750000
v 0.062500 0.250000 0.750000
v 0.062500 0.937500 0.250000
v 0.062500 0.750000 0.250000
v 0.062500 0.250000 0.250000
v 0.062500 0.750000 0.937500
v 0.062500 0.250000 0.937500
v 0.062500 0.062500 0.062500
v 0.125000 0.750000 0.750000
v 0.125000 0.250000 0.750000
v 0.125000 0.750000 0.250000
v 0.125000 0.250000 0.250000
v 1.000000 0.250000 1.000000
v 0.750000 1.000000 1.000000
v 0.250000 1.000000 1.000000
v 0.250000 0.000000 1.000000
v 0.000000 0.250000 1.000000
v 0.000000 0.750000 1.000000
v 0.000000 1.000000 1.000000
v 0.062500 1.000000 1.000000
v 0.750000 0.937500 1.000000
v 0.000000 0.937500 1.000000
v 0.250000 0.937500 1.000000
v 0.937500 0.750000 1.000000
v 0.937500 0.937500 1.000000
v 0.937500 0.250000 1.000000
v 0.750000 0.062500 1.000000
v 0.937500 0.062500 1.000000
v 0.250000 0.062500 1.000000
v 0.062500 0.750000 1.000000
v 0.062500 0.250000 1.000000
v 0.062500 0.000000 1.000000
v 0.062500 0.937500 1.000000
v 0.062500 0.062500 1.000000
v 0.750000 0.750000 0.937500
v 0.750000 0.250000 0.937500
v 0.250000 0.750000 0.937500
v 0.250000 0.250000 0.937500
v 0.937500 0.750000 0.937500
v 0.750000 0.062500 0.937500
v 0.062500 0.062500 0.937500
v 0.062500 0.937500 0.937500
v 0.750000 0.750000 0.875000
v 0.750000 0.250000 0.875000
v 0.250000 0.750000 0.875000
v 0.250000 0.250000 0.875000
v 1.000000 0.000000 0.000000
v 1.000000 0.000000 0.250000
v 0.750000 0.000000 1.000000
v 0.250000 0.000000 0.000000
v 0.000000 0.000000 0.250000
v 0.000000 0.000000 0.750000
v 0.000000 0.000000 1.000000
v 1.000000 0.000000 0.937500
v 0.750000 0.000000 0.937500
v 0.250000 0.000000 0.937500
v 0.937500 0.000000 0.750000
v 0.937500 0.000000 0.000000
v 0.937500 0.000000 1.000000
v 0.937500 0.000000 0.937500
v 0.937500 0.000000 0.250000
v 1.000000 0.000000 0.062500
v 0.750000 0.000000 0.062500
v 0.937500 0.000000 0.062500
v 0.250000 0.000000 0.062500
v 0.062500 0.000000 0.750000
v 0.062500 0.000000 0.250000
v 0.062500 0.000000 0.937500
v 0.062500 0.000000 0.062500
v 0.750000 0.062500 0.750000
v 0.750000 0.062500 0.250000
v 0.250000 0.062500 0.937500
v 0.250000 0.062500 0.750000
v 0.250000 0.062500 0.250000
v 0.062500 0.062500 0.750000
v 0.062500 0.062500 0.250000
v 0.937500 0.062500 0.937500
v 0.750000 0.125000 0.750000
v 0.750000 0.125000 0.250000
v 0.250000 0.125000 0.750000
v 0.250000 0.125000 0.250000
v 1.000000 0.750000 1.000000
v 1.000000 0.750000 0.000000
v 1.000000 0.250000 0.000000
v 1.000000 0.000000 0.750000
v 1.000000 0.000000 1.000000
v 1.000000 0.062500 1.000000
v 1.000000 1.000000 0.937500
v 1.000000 0.750000 0.937500
v 1.000000 0.250000 0.937500
v 1.000000 0.937500 0.750000
v 1.000000 0.937500 1.000000
v 1.000000 0.937500 0.937500
v 1.000000 0.937500 0.250000
v 1.000000 0.750000 0.062500
v 1.000000 0.937500 0.062500
v 1.000000 0.250000 0.062500
v 1.000000 0.062500 0.750000
v 1.000000 0.062500 0.250000
v 1.000000 0.062500 0.937500
v 1.000000 0.062500 0.062500
v 0.937500 0.750000 0.750000
v 0.937500 0.750000 0.250000
v 0.937500 0.250000 0.937500
v 0.937500 0.250000 0.750000
v 0.937500 0.250000 0.250000
v 0.937500 0.062500 0.750000
v 0.937500 0.062500 0.250000
v 0.937500 0.937500 0.750000
v 0.937500 0.937500 0.062500
v 0.937500 0.250000 0.062500
v 0.937500 0.062500 0.062500
v 0.875000 0.750000 0.750000
v 0.875000 0.750000 0.250000
v 0.875000 0.250000 0.750000
v 0.875000 0.250000 0.250000
vt 0.250000 1.000000
vt 0.062500 1.000000
vt 0.062500 0.937500
vt 0.250000 0.937500
vt 0.062500 0.750000
vt 0.000000 0.750000
vt 0.000000 0.250000
vt 0.062500 0.250000
vt 0.000000 0.062500
vt 0.062500 0.062500
vt 0.750000 1.000000
vt 0.750000 0.937500
vt 0.250000 0.875000
vt 0.750000 0.875000
vt 0.250000 0.750000
vt 0.750000 0.750000
vt 0.750123 0.750000
vt 0.250123 0.750000
vt 0.249877 0.250000
vt 0.749877 0.250000
vt 1.000000 0.062500
vt 0.937500 0.062500
vt 0.937500 0.000000
vt 1.000000 0.000000
vt 1.000000 0.750000
vt 0.937500 0.750000
vt 0.937500 0.250000
vt 1.000000 0.250000
vt 0.000000 1.000000
vt 0.000000 0.937500
vt 0.250000 0.000000
vt 0.750000 0.000000
vt 0.750000 0.062500
vt 0.250000 0.062500
vt 1.000000 0.937500
vt 0.937500 0.937500
vt 0.875000 0.750000
vt 0.875000 0.250000
vt 0.750000 0.250000
vt 0.250000 0.250000
vt 0.750000 0.125000
vt 0.250000 0.125000
vt 0.125000 0.250000
vt 0.125000 0.750000
vt 0.062500 0.000000
vt 0.770137 0.658409
vt 0.770137 0.496049
vt 0.790431 0.496050
vt 0.790431 0.658409
vt 0.000000 0.000000
vt 1.000000 1.000000
vt 0.937500 1.000000
vn 0.000000 0.000000 -1.000000
vn 0.000000 1.000000 0.000000
vn 0.000000 0.000000 1.000000
vn -1.000000 0.000000 0.000000
vn 1.000000 0.000000 0.000000
vn 0.000000 -1.000000 0.000000
usemtl casing:Casing
s off
f 56/67/37 66/68/37 75/69/37 71/70/37
f 64/71/38 51/72/38 50/73/38 65/74/38
f 65/74/38 50/73/38 60/75/38 67/76/38
f 55/77/37 56/67/37 71/70/37 68/78/37
f 69/78/37 72/70/37 78/79/37 76/80/37
f 68/78/38 71/70/38 72/81/38 69/82/38
f 76/83/38 78/84/38 79/85/38 77/86/38
f 73/78/39 70/70/39 77/79/39 79/80/39
f 72/78/40 73/70/40 79/79/40 78/80/40
f 70/78/41 69/70/41 76/79/41 77/80/41
f 96/87/37 99/88/37 92/89/37 81/90/37
f 82/91/37 91/92/37 95/93/37 83/94/37
f 87/68/37 86/95/37 89/96/37 103/69/37
f 100/97/38 98/98/38 115/99/38 116/100/38
f 95/94/41 91/91/41 113/92/41 114/93/41
f 83/94/37 95/93/37 99/88/37 96/87/37
f 91/91/41 94/101/41 112/102/41 113/92/41
f 84/67/37 87/68/37 103/69/37 90/70/37
f 88/94/42 90/91/42 108/92/42 105/93/42
f 106/93/42 109/92/42 119/103/42 117/104/42
f 105/78/37 108/70/37 109/81/37 106/82/37
f 112/102/37 105/78/37 106/82/37 113/92/37
f 113/92/37 106/82/37 107/105/37 114/93/37
f 107/105/37 110/106/37 116/100/37 115/99/37
f 94/87/42 88/94/42 105/93/42 112/88/42
f 117/82/37 119/81/37 120/106/37 118/105/37
f 110/100/38 107/99/38 118/107/38 120/108/38
f 109/71/40 110/74/40 120/109/40 119/110/40
f 107/93/41 106/92/41 117/103/41 118/104/41
f 121/77/40 122/67/40 126/70/40 124/78/40
f 130/94/37 127/91/37 146/92/37 147/93/37
f 122/67/40 123/68/40 138/69/40 126/70/40
f 124/97/42 126/98/42 143/99/42 140/100/42
f 141/100/42 144/99/42 151/107/42 149/108/42
f 140/78/40 143/70/40 144/81/40 141/82/40
f 146/92/40 141/82/40 142/105/40 147/93/40
f 149/82/40 151/81/40 152/106/40 150/105/40
f 145/93/38 142/92/38 150/103/38 152/104/38
f 144/71/39 145/74/39 152/109/39 151/110/39
f 142/93/37 141/92/37 149/103/37 150/104/37
f 154/77/39 155/67/39 163/70/39 161/78/39
f 160/68/39 159/95/39 162/96/39 173/69/39
f 170/71/39 158/72/39 157/73/39 171/74/39
f 173/69/39 162/96/39 158/72/39 170/71/39
f 169/100/39 174/76/39 172/111/39 156/97/39
f 155/67/39 160/68/39 173/69/39 163/70/39
f 175/71/42 177/74/42 185/109/42 183/110/42
f 183/82/39 185/81/39 186/106/39 184/105/39
f 178/78/38 176/70/38 184/79/38 186/80/38
f 177/112/41 178/113/41 186/114/41 185/115/41
f 176/93/40 175/92/40 183/103/40 184/104/40
f 202/111/42 204/76/42 198/75/42 187/116/42
f 206/78/42 192/77/42 191/67/42 207/70/42
f 199/87/42 189/94/42 195/93/42 200/88/42
f 188/97/42 201/100/42 204/76/42 202/111/42
f 206/97/41 207/98/41 216/99/41 215/100/41
f 210/100/37 213/99/37 220/107/37 218/108/37
f 213/82/42 215/78/42 216/70/42 214/81/42
f 218/105/42 220/82/42 221/81/42 219/106/42
f 214/100/39 211/99/39 219/107/39 221/108/39
f 213/100/41 214/99/41 221/107/41 220/108/41
f 211/100/40 210/99/40 218/107/40 219/108/40
f 235/92/41 237/93/41 224/94/41 223/91/41
f 232/96/41 222/72/41 229/71/41 233/69/41
f 239/73/38 241/75/38 252/76/38 248/74/38
f 241/87/39 237/94/39 251/93/39 252/88/39
f 238/72/38 239/73/38 248/74/38 247/71/38
f 242/71/37 245/74/37 255/109/37 253/110/37
f 245/106/41 247/100/41 248/99/41 246/105/41
f 246/105/41 248/99/41 252/88/41 251/93/41
f 253/81/41 255/106/41 256/105/41 254/82/41
f 246/93/39 243/92/39 254/103/39 256/104/39
f 245/71/38 246/74/38 256/109/38 255/110/38
f 243/78/42 242/70/42 253/79/42 254/80/42
f 67/76/38 60/75/38 86/116/38 87/111/38
f 123/87/38 62/88/38 93/89/38 80/90/38
f 61/99/38 63/100/38 84/97/38 49/98/38
f 159/117/38 160/118/38 58/102/38 54/101/38
f 121/91/38 57/92/38 59/93/38 122/94/38
f 155/77/38 154/67/38 56/70/38 55/78/38
f 53/68/38 52/95/38 228/96/38 66/69/38
f 54/101/38 58/102/38 57/92/38 121/91/38
f 66/69/38 228/96/38 51/72/38 64/71/38
f 63/77/39 61/67/39 105/70/39 108/78/39
f 160/118/38 155/77/38 55/78/38 58/102/38
f 59/77/41 57/67/41 140/70/41 143/78/41
f 65/67/40 67/68/40 250/69/40 74/70/40
f 62/88/38 61/99/38 49/98/38 93/89/38
f 67/118/39 63/77/39 108/78/39 250/102/39
f 66/118/40 64/77/40 249/78/40 75/102/40
f 122/94/38 59/93/38 62/88/38 123/87/38
f 57/67/41 58/68/41 182/69/41 140/70/41
f 64/77/40 65/67/40 74/70/40 249/78/40
f 63/100/38 67/76/38 87/111/38 84/97/38
f 154/67/38 53/68/38 66/69/38 56/70/38
f 182/102/38 68/78/38 69/82/38 140/92/38
f 140/92/38 69/82/38 70/105/38 143/93/38
f 70/105/38 73/106/38 108/100/38 105/99/38
f 143/93/38 70/105/38 105/99/38 112/88/38
f 72/81/38 249/71/38 74/74/38 73/106/38
f 73/106/38 74/74/38 250/76/38 108/100/38
f 71/70/38 75/69/38 249/71/38 72/81/38
f 62/118/41 59/77/41 143/78/41 112/102/41
f 61/67/39 62/68/39 112/69/39 105/70/39
f 58/118/37 55/77/37 68/78/37 182/102/37
f 104/76/37 97/75/37 187/116/37 198/111/37
f 98/99/37 100/100/37 85/97/37 190/98/37
f 80/117/37 93/118/37 94/102/37 125/101/37
f 49/77/37 84/67/37 90/70/37 88/78/37
f 90/91/42 103/101/42 250/102/42 108/92/42
f 101/71/37 223/72/37 224/73/37 102/74/37
f 125/101/37 94/102/37 91/92/37 82/91/37
f 103/69/37 89/96/37 223/72/37 101/71/37
f 93/118/37 49/77/37 88/78/37 94/102/37
f 102/73/40 104/75/40 252/76/40 251/74/40
f 99/88/37 98/99/37 190/98/37 92/89/37
f 104/111/38 100/97/38 116/100/38 252/76/38
f 103/96/40 101/72/40 111/71/40 250/69/40
f 102/74/37 224/73/37 97/75/37 104/76/37
f 101/72/40 102/73/40 251/74/40 111/71/40
f 100/100/37 104/76/37 198/111/37 85/97/37
f 114/93/37 107/105/37 115/99/37 148/88/37
f 109/81/37 111/71/37 251/74/37 110/106/37
f 110/106/37 251/74/37 252/76/37 116/100/37
f 108/70/37 250/69/37 111/71/37 109/81/37
f 99/87/41 95/94/41 114/93/41 148/88/41
f 98/98/38 99/89/38 148/88/38 115/99/38
f 139/76/40 96/75/40 81/116/40 137/111/40
f 131/87/40 133/88/40 128/89/40 193/90/40
f 132/99/40 134/100/40 191/97/40 192/98/40
f 159/117/40 54/118/40 129/102/40 162/101/40
f 158/91/40 127/92/40 130/93/40 157/94/40
f 126/98/42 138/89/42 112/88/42 143/99/42
f 123/68/40 80/95/40 125/96/40 138/69/40
f 135/71/40 82/72/40 83/73/40 136/74/40
f 162/101/40 129/102/40 127/92/40 158/91/40
f 138/69/40 125/96/40 82/72/40 135/71/40
f 134/94/38 132/91/38 215/92/38 216/93/38
f 54/118/40 121/77/40 124/78/40 129/102/40
f 136/73/39 139/75/39 148/76/39 114/74/39
f 133/88/40 132/99/40 192/98/40 128/89/40
f 139/87/38 134/94/38 216/93/38 148/88/38
f 138/96/39 135/72/39 113/71/39 112/69/39
f 157/94/40 130/93/40 133/88/40 131/87/40
f 136/74/40 83/73/40 96/75/40 139/76/40
f 127/91/37 129/101/37 182/102/37 146/92/37
f 135/72/39 136/73/39 114/74/39 113/71/39
f 134/100/40 139/76/40 137/111/40 191/97/40
f 182/102/40 140/78/40 141/82/40 146/92/40
f 142/105/40 145/106/40 216/100/40 215/99/40
f 147/93/40 142/105/40 215/99/40 181/88/40
f 144/81/40 113/71/40 114/74/40 145/106/40
f 145/106/40 114/74/40 148/76/40 216/100/40
f 143/70/40 112/69/40 113/71/40 144/81/40
f 133/87/37 130/94/37 147/93/37 181/88/37
f 132/91/38 133/101/38 181/102/38 215/92/38
f 129/111/42 124/97/42 140/100/42 182/76/42
f 174/76/39 131/75/39 193/116/39 172/111/39
f 227/87/39 168/88/39 199/89/39 226/90/39
f 167/99/39 169/100/39 156/97/39 189/98/39
f 52/117/39 53/118/39 165/102/39 232/101/39
f 222/91/39 164/92/39 166/93/39 153/94/39
f 163/73/42 173/75/42 182/76/42 68/74/42
f 232/101/39 165/102/39 164/92/39 222/91/39
f 169/77/38 167/67/38 180/70/38 212/78/38
f 53/118/39 154/77/39 161/78/39 165/102/39
f 166/94/40 164/91/40 179/92/40 244/93/40
f 171/73/41 174/75/41 181/76/41 147/74/41
f 168/88/39 167/99/39 189/98/39 199/89/39
f 174/118/38 169/77/38 212/78/38 181/102/38
f 173/96/41 170/72/41 146/71/41 182/69/41
f 153/94/39 166/93/39 168/88/39 227/87/39
f 171/74/39 157/73/39 131/75/39 174/76/39
f 164/91/40 165/101/40 75/102/40 179/92/40
f 170/72/41 171/73/41 147/74/41 146/71/41
f 161/72/42 163/73/42 68/74/42 71/71/42
f 71/78/39 68/70/39 177/81/39 175/82/39
f 75/102/39 71/78/39 175/82/39 179/92/39
f 179/92/39 175/82/39 176/105/39 244/93/39
f 176/105/39 178/106/39 212/100/39 180/99/39
f 244/93/39 176/105/39 180/99/39 217/88/39
f 177/81/39 146/71/39 147/74/39 178/106/39
f 178/106/39 147/74/39 181/76/39 212/100/39
f 68/70/39 182/69/39 146/71/39 177/81/39
f 168/87/40 166/94/40 244/93/40 217/88/40
f 167/67/38 168/68/38 217/69/38 180/70/38
f 165/96/42 161/72/42 71/71/42 75/69/42
f 209/69/42 137/68/42 81/95/42 92/96/42
f 203/74/42 205/71/42 190/72/42 85/73/42
f 226/90/42 199/87/42 200/88/42 194/89/42
f 225/98/42 197/99/42 201/100/42 188/97/42
f 189/94/42 156/91/42 196/92/42 195/93/42
f 196/98/37 208/89/37 181/88/37 212/99/37
f 172/101/42 193/117/42 128/118/42 208/102/42
f 194/89/42 200/88/42 197/99/42 225/98/42
f 208/102/42 128/118/42 192/77/42 206/78/42
f 205/97/39 203/98/39 116/99/39 115/100/39
f 201/97/40 197/98/40 247/99/40 248/100/40
f 207/98/41 209/89/41 148/88/41 216/99/41
f 204/76/42 203/74/42 85/73/42 198/75/42
f 209/111/39 205/97/39 115/100/39 148/76/39
f 208/111/41 206/97/41 215/100/41 181/76/41
f 207/70/42 191/67/42 137/68/42 209/69/42
f 197/98/40 200/89/40 217/88/40 247/99/40
f 205/71/42 209/69/42 92/96/42 190/72/42
f 156/91/42 172/101/42 208/102/42 196/92/42
f 195/97/37 196/98/37 212/99/37 180/100/37
f 180/93/42 212/92/42 213/82/42 210/105/42
f 217/88/42 180/93/42 210/105/42 247/99/42
f 247/99/42 210/105/42 211/106/42 248/100/42
f 211/106/42 214/81/42 115/71/42 116/74/42
f 248/100/42 211/106/42 116/74/42 252/76/42
f 214/81/42 216/70/42 148/69/42 115/71/42
f 212/92/42 181/102/42 215/78/42 213/82/42
f 204/111/40 201/97/40 248/100/40 252/76/40
f 203/98/39 204/89/39 252/88/39 116/99/39
f 200/111/37 195/97/37 180/100/37 217/76/37
f 241/88/41 202/89/41 187/90/41 97/87/41
f 60/118/41 236/102/41 89/101/41 86/117/41
f 52/95/41 232/96/41 233/69/41 228/68/41
f 51/67/41 231/70/41 234/78/41 50/77/41
f 222/72/41 153/73/41 230/74/41 229/71/41
f 230/73/37 240/75/37 217/76/37 244/74/37
f 227/75/41 226/116/41 194/111/41 240/76/41
f 238/100/41 225/97/41 188/98/41 239/99/41
f 228/68/41 233/69/41 231/70/41 51/67/41
f 240/76/41 194/111/41 225/97/41 238/100/41
f 237/94/39 235/91/39 111/92/39 251/93/39
f 234/77/42 231/67/42 249/70/42 74/78/42
f 236/102/41 235/92/41 223/91/41 89/101/41
f 240/96/38 238/72/38 247/71/38 217/69/38
f 50/77/41 234/78/41 236/102/41 60/118/41
f 239/99/41 188/98/41 202/89/41 241/88/41
f 231/67/42 233/68/42 75/69/42 249/70/42
f 237/93/41 241/88/41 97/87/41 224/94/41
f 153/73/41 227/75/41 240/76/41 230/74/41
f 229/72/37 230/73/37 244/74/37 179/71/37
f 179/71/41 244/74/41 245/106/41 242/81/41
f 75/69/41 179/71/41 242/81/41 249/70/41
f 249/70/41 242/81/41 243/82/41 74/78/41
f 243/82/41 246/105/41 251/93/41 111/92/41
f 74/78/41 243/82/41 111/92/41 250/102/41
f 244/74/41 217/76/41 247/100/41 245/106/41
f 236/118/42 234/77/42 74/78/42 250/102/42
f 235/91/39 236/101/39 250/102/39 111/92/39
f 233/96/37 229/72/37 179/71/37 75/69/37
