mtllib casing.mtl
o casing:module.X_NEG_Mesh
v 0.937500 0.062500 0.937500
v 0.937500 0.937500 0.937500
v 0.937500 0.062500 0.062500
v 0.937500 0.937500 0.062500
v 1.000000 0.062500 0.937500
v 1.000000 0.937500 0.937500
v 1.000000 0.062500 0.062500
v 1.000000 0.937500 0.062500
vt 0.937500 0.937500
vt 0.062500 0.937500
vt 0.062500 0.062500
vt 0.937500 0.062500
vt 0.062500 1.000000
vt 0.000000 1.000000
vt 0.000000 0.000000
vt 0.062500 0.000000
vt 1.000000 0.062500
vt 0.000000 0.062500
vt 1.000000 0.000000
vn -1.000000 0.000000 0.000000
vn 0.000000 0.000000 -1.000000
vn 1.000000 0.000000 0.000000
vn 0.000000 0.000000 1.000000
vn 0.000000 -1.000000 0.000000
vn 0.000000 1.000000 0.000000
usemtl casing:Module
s off
f 2/1/1 4/2/1 3/3/1 1/4/1
f 4/5/2 8/6/2 7/7/2 3/8/2
f 8/1/3 6/2/3 5/3/3 7/4/3
f 6/5/4 2/6/4 1/7/4 5/8/4
f 1/9/5 3/10/5 7/7/5 5/11/5
f 6/9/6 8/10/6 4/7/6 2/11/6
o casing:casing
v 0.750000 1.000000 1.000000
v 0.000000 1.000000 0.750000
v 0.000000 1.000000 0.250000
v 0.000000 1.000000 0.000000
v 0.062500 1.000000 0.000000
v 1.000000 1.000000 0.062500
v 0.750000 1.000000 0.062500
v 0.250000 1.000000 0.062500
v 0.937500 1.000000 0.250000
v 0.937500 1.000000 0.062500
v 0.937500 1.000000 0.750000
v 0.000000 1.000000 0.937500
v 0.750000 1.000000 0.937500
v 0.937500 1.000000 0.937500
v 0.250000 1.000000 0.937500
v 0.062500 1.000000 0.250000
v 0.062500 1.000000 0.750000
v 0.062500 1.000000 0.062500
v 0.062500 1.000000 0.937500
v 0.750000 0.937500 0.062500
v 0.750000 0.937500 0.250000
v 0.750000 0.937500 0.750000
v 0.250000 0.937500 0.062500
v 0.250000 0.937500 0.250000
v 0.250000 0.937500 0.750000
v 0.062500 0.937500 0.750000
v 0.062500 0.937500 0.062500
v 0.750000 0.875000 0.250000
v 0.750000 0.875000 0.750000
v 0.250000 0.875000 0.250000
v 0.250000 0.875000 0.750000
v 1.000000 1.000000 1.000000
v 1.000000 0.000000 1.000000
v 1.000000 0.750000 1.000000
v 1.000000 0.250000 1.000000
v 0.250000 1.000000 1.000000
v 0.250000 0.000000 1.000000
v 0.000000 1.000000 1.000000
v 0.062500 1.000000 1.000000
v 0.750000 0.937500 1.000000
v 0.000000 0.937500 1.000000
v 0.250000 0.937500 1.000000
v 0.937500 0.750000 1.000000
v 0.937500 0.000000 1.000000
v 0.937500 1.000000 1.000000
v 0.937500 0.937500 1.000000
v 0.937500 0.250000 1.000000
v 1.000000 0.062500 1.000000
v 0.000000 0.062500 1.000000
v 0.750000 0.062500 1.000000
v 0.937500 0.062500 1.000000
v 0.250000 0.062500 1.000000
v 0.062500 0.750000 1.000000
v 0.062500 0.250000 1.000000
v 0.062500 0.937500 1.000000
v 0.062500 0.062500 1.000000
v 0.750000 0.937500 0.937500
v 0.750000 0.750000 0.937500
v 0.750000 0.250000 0.937500
v 0.250000 0.937500 0.937500
v 0.250000 0.750000 0.937500
v 0.250000 0.250000 0.937500
v 0.062500 0.750000 0.937500
v 0.937500 0.937500 0.937500
v 0.937500 0.750000 0.937500
v 0.937500 0.250000 0.937500
v 0.750000 0.062500 0.937500
v 0.250000 0.062500 0.937500
v 0.750000 0.750000 0.875000
v 0.750000 0.250000 0.875000
v 0.250000 0.750000 0.875000
v 0.250000 0.250000 0.875000
v 1.000000 1.000000 0.250000
v 1.000000 1.000000 0.750000
v 1.000000 1.000000 0.937500
v 1.000000 0.937500 0.250000
v 1.000000 0.937500 1.000000
v 1.000000 0.937500 0.750000
v 1.000000 0.750000 0.062500
v 1.000000 0.000000 0.062500
v 1.000000 0.937500 0.062500
v 1.000000 0.250000 0.062500
v 1.000000 0.062500 0.000000
v 1.000000 0.062500 0.250000
v 1.000000 0.062500 0.062500
v 1.000000 0.062500 0.750000
v 1.000000 0.750000 0.937500
v 1.000000 0.250000 0.937500
v 1.000000 0.000000 0.937500
v 1.000000 0.937500 0.937500
v 1.000000 0.062500 0.937500
v 0.937500 0.937500 0.250000
v 0.937500 0.750000 0.250000
v 0.937500 0.250000 0.250000
v 0.937500 0.937500 0.750000
v 0.937500 0.750000 0.750000
v 0.937500 0.250000 0.750000
v 0.937500 0.750000 0.062500
v 0.937500 0.250000 0.062500
v 0.937500 0.062500 0.937500
v 0.875000 0.750000 0.250000
v 0.875000 0.250000 0.250000
v 0.875000 0.750000 0.750000
v 0.875000 0.250000 0.750000
v 0.000000 0.250000 0.000000
v 0.250000 1.000000 0.000000
v 0.750000 1.000000 0.000000
v 0.750000 0.000000 0.000000
v 1.000000 0.250000 0.000000
v 1.000000 0.750000 0.000000
v 1.000000 1.000000 0.000000
v 0.937500 1.000000 0.000000
v 0.250000 0.937500 0.000000
v 1.000000 0.937500 0.000000
v 0.750000 0.937500 0.000000
v 0.062500 0.750000 0.000000
v 0.062500 0.937500 0.000000
v 0.062500 0.250000 0.000000
v 0.250000 0.062500 0.000000
v 0.062500 0.062500 0.000000
v 0.750000 0.062500 0.000000
v 0.937500 0.750000 0.000000
v 0.937500 0.250000 0.000000
v 0.937500 0.000000 0.000000
v 0.937500 0.937500 0.000000
v 0.937500 0.062500 0.000000
v 0.250000 0.750000 0.062500
v 0.250000 0.250000 0.062500
v 0.750000 0.750000 0.062500
v 0.750000 0.250000 0.062500
v 0.062500 0.750000 0.062500
v 0.250000 0.062500 0.062500
v 0.937500 0.062500 0.062500
v 0.937500 0.937500 0.062500
v 0.250000 0.750000 0.125000
v 0.250000 0.250000 0.125000
v 0.750000 0.750000 0.125000
v 0.750000 0.250000 0.125000
v 0.000000 0.000000 1.000000
v 0.000000 0.000000 0.750000
v 0.250000 0.000000 0.000000
v 0.750000 0.000000 1.000000
v 1.000000 0.000000 0.750000
v 1.000000 0.000000 0.250000
v 1.000000 0.000000 0.000000
v 0.000000 0.000000 0.062500
v 0.250000 0.000000 0.062500
v 0.750000 0.000000 0.062500
v 0.062500 0.000000 0.250000
v 0.062500 0.000000 1.000000
v 0.062500 0.000000 0.000000
v 0.062500 0.000000 0.062500
v 0.062500 0.000000 0.750000
v 0.000000 0.000000 0.937500
v 0.250000 0.000000 0.937500
v 0.062500 0.000000 0.937500
v 0.750000 0.000000 0.937500
v 0.937500 0.000000 0.250000
v 0.937500 0.000000 0.750000
v 0.937500 0.000000 0.062500
v 0.937500 0.000000 0.937500
v 0.250000 0.062500 0.250000
v 0.250000 0.062500 0.750000
v 0.750000 0.062500 0.062500
v 0.750000 0.062500 0.250000
v 0.750000 0.062500 0.750000
v 0.937500 0.062500 0.250000
v 0.937500 0.062500 0.750000
v 0.062500 0.062500 0.062500
v 0.250000 0.125000 0.250000
v 0.250000 0.125000 0.750000
v 0.750000 0.125000 0.250000
v 0.750000 0.125000 0.750000
v 0.000000 0.750000 0.000000
v 0.000000 0.750000 1.000000
v 0.000000 0.250000 1.000000
v 0.000000 0.000000 0.250000
v 0.000000 0.000000 0.000000
v 0.000000 0.062500 0.000000
v 0.000000 1.000000 0.062500
v 0.000000 0.750000 0.062500
v 0.000000 0.250000 0.062500
v 0.000000 0.937500 0.250000
v 0.000000 0.937500 0.000000
v 0.000000 0.937500 0.062500
v 0.000000 0.937500 0.750000
v 0.000000 0.750000 0.937500
v 0.000000 0.937500 0.937500
v 0.000000 0.250000 0.937500
v 0.000000 0.062500 0.250000
v 0.000000 0.062500 0.750000
v 0.000000 0.062500 0.062500
v 0.000000 0.062500 0.937500
v 0.062500 0.750000 0.250000
v 0.062500 0.750000 0.750000
v 0.062500 0.250000 0.062500
v 0.062500 0.250000 0.250000
v 0.062500 0.250000 0.750000
v 0.062500 0.062500 0.250000
v 0.062500 0.062500 0.750000
v 0.062500 0.937500 0.250000
v 0.062500 0.937500 0.937500
v 0.062500 0.250000 0.937500
v 0.062500 0.062500 0.937500
v 0.125000 0.750000 0.250000
v 0.125000 0.750000 0.750000
v 0.125000 0.250000 0.250000
v 0.125000 0.250000 0.750000
vt 0.250000 1.000000
vt 0.062500 1.000000
vt 0.062500 0.937500
vt 0.250000 0.937500
vt 0.062500 0.750000
vt 0.000000 0.750000
vt 0.000000 0.250000
vt 0.062500 0.250000
vt 0.000000 0.062500
vt 0.062500 0.062500
vt 0.750000 1.000000
vt 0.750000 0.937500
vt 0.250000 0.875000
vt 0.750000 0.875000
vt 0.250000 0.750000
vt 0.750000 0.750000
vt 0.750123 0.750000
vt 0.250123 0.750000
vt 0.249877 0.250000
vt 0.749877 0.250000
vt 1.000000 0.062500
vt 0.937500 0.062500
vt 0.937500 0.000000
vt 1.000000 0.000000
vt 1.000000 0.750000
vt 0.937500 0.750000
vt 0.937500 0.250000
vt 1.000000 0.250000
vt 0.000000 1.000000
vt 0.000000 0.937500
vt 0.250000 0.000000
vt 0.750000 0.000000
vt 0.750000 0.062500
vt 0.250000 0.062500
vt 1.000000 0.937500
vt 0.937500 0.937500
vt 0.875000 0.750000
vt 0.875000 0.250000
vt 0.750000 0.250000
vt 0.250000 0.250000
vt 0.750000 0.125000
vt 0.250000 0.125000
vt 0.125000 0.250000
vt 0.125000 0.750000
vt 0.062500 0.000000
vt 0.770137 0.658409
vt 0.770137 0.496049
vt 0.790431 0.496050
vt 0.790431 0.658409
vt 0.000000 0.000000
vt 1.000000 1.000000
vt 0.937500 1.000000
vn 0.000000 0.000000 1.000000
vn 0.000000 1.000000 0.000000
vn 0.000000 0.000000 -1.000000
vn 1.000000 0.000000 0.000000
vn -1.000000 0.000000 0.000000
vn 0.000000 -1.000000 0.000000
usemtl casing:Casing
s off
f 16/12/7 26/13/7 35/14/7 31/15/7
f 24/16/8 11/17/8 10/18/8 25/19/8
f 25/19/8 10/18/8 20/20/8 27/21/8
f 15/22/7 16/12/7 31/15/7 28/23/7
f 29/23/7 32/15/7 38/24/7 36/25/7
f 28/23/8 31/15/8 32/26/8 29/27/8
f 36/28/8 38/29/8 39/30/8 37/31/8
f 33/23/9 30/15/9 37/24/9 39/25/9
f 32/23/10 33/15/10 39/24/10 38/25/10
f 30/23/11 29/15/11 36/24/11 37/25/11
f 56/32/7 59/33/7 52/34/7 41/35/7
f 42/36/7 51/37/7 55/38/7 43/39/7
f 47/13/7 46/40/7 49/41/7 63/14/7
f 60/42/8 58/43/8 75/44/8 76/45/8
f 55/39/11 51/36/11 73/37/11 74/38/11
f 43/39/7 55/38/7 59/33/7 56/32/7
f 51/36/11 54/46/11 72/47/11 73/37/11
f 44/12/7 47/13/7 63/14/7 50/15/7
f 48/39/12 50/36/12 68/37/12 65/38/12
f 66/38/12 69/37/12 79/48/12 77/49/12
f 65/23/7 68/15/7 69/26/7 66/27/7
f 72/47/7 65/23/7 66/27/7 73/37/7
f 73/37/7 66/27/7 67/50/7 74/38/7
f 67/50/7 70/51/7 76/45/7 75/44/7
f 54/32/12 48/39/12 65/38/12 72/33/12
f 77/27/7 79/26/7 80/51/7 78/50/7
f 70/45/8 67/44/8 78/52/8 80/53/8
f 69/16/10 70/19/10 80/54/10 79/55/10
f 67/38/11 66/37/11 77/48/11 78/49/11
f 81/22/10 82/12/10 86/15/10 84/23/10
f 90/39/7 87/36/7 106/37/7 107/38/7
f 82/12/10 83/13/10 98/14/10 86/15/10
f 84/42/12 86/43/12 103/44/12 100/45/12
f 101/45/12 104/44/12 111/52/12 109/53/12
f 100/23/10 103/15/10 104/26/10 101/27/10
f 106/37/10 101/27/10 102/50/10 107/38/10
f 109/27/10 111/26/10 112/51/10 110/50/10
f 105/38/8 102/37/8 110/48/8 112/49/8
f 104/16/9 105/19/9 112/54/9 111/55/9
f 102/38/7 101/37/7 109/48/7 110/49/7
f 114/22/9 115/12/9 123/15/9 121/23/9
f 120/13/9 119/40/9 122/41/9 133/14/9
f 130/16/9 118/17/9 117/18/9 131/19/9
f 133/14/9 122/41/9 118/17/9 130/16/9
f 129/45/9 134/21/9 132/56/9 116/42/9
f 115/12/9 120/13/9 133/14/9 123/15/9
f 135/16/12 137/19/12 145/54/12 143/55/12
f 143/27/9 145/26/9 146/51/9 144/50/9
f 138/23/8 136/15/8 144/24/8 146/25/8
f 137/57/11 138/58/11 146/59/11 145/60/11
f 136/38/10 135/37/10 143/48/10 144/49/10
f 162/56/12 164/21/12 158/20/12 147/61/12
f 166/23/12 152/22/12 151/12/12 167/15/12
f 159/32/12 149/39/12 155/38/12 160/33/12
f 148/42/12 161/45/12 164/21/12 162/56/12
f 166/42/11 167/43/11 176/44/11 175/45/11
f 170/45/7 173/44/7 180/52/7 178/53/7
f 173/27/12 175/23/12 176/15/12 174/26/12
f 178/50/12 180/27/12 181/26/12 179/51/12
f 174/45/9 171/44/9 179/52/9 181/53/9
f 173/45/11 174/44/11 181/52/11 180/53/11
f 171/45/10 170/44/10 178/52/10 179/53/10
f 195/37/11 197/38/11 184/39/11 183/36/11
f 192/41/11 182/17/11 189/16/11 193/14/11
f 199/18/8 201/20/8 212/21/8 208/19/8
f 201/32/9 197/39/9 211/38/9 212/33/9
f 198/17/8 199/18/8 208/19/8 207/16/8
f 202/16/7 205/19/7 215/54/7 213/55/7
f 205/51/11 207/45/11 208/44/11 206/50/11
f 206/50/11 208/44/11 212/33/11 211/38/11
f 213/26/11 215/51/11 216/50/11 214/27/11
f 206/38/9 203/37/9 214/48/9 216/49/9
f 205/16/8 206/19/8 216/54/8 215/55/8
f 203/23/12 202/15/12 213/24/12 214/25/12
f 27/21/8 20/20/8 46/61/8 47/56/8
f 83/32/8 22/33/8 53/34/8 40/35/8
f 21/44/8 23/45/8 44/42/8 9/43/8
f 119/62/8 120/63/8 18/47/8 14/46/8
f 81/36/8 17/37/8 19/38/8 82/39/8
f 115/22/8 114/12/8 16/15/8 15/23/8
f 13/13/8 12/40/8 188/41/8 26/14/8
f 14/46/8 18/47/8 17/37/8 81/36/8
f 26/14/8 188/41/8 11/17/8 24/16/8
f 23/22/9 21/12/9 65/15/9 68/23/9
f 120/63/8 115/22/8 15/23/8 18/47/8
f 19/22/11 17/12/11 100/15/11 103/23/11
f 25/12/10 27/13/10 210/14/10 34/15/10
f 22/33/8 21/44/8 9/43/8 53/34/8
f 27/63/9 23/22/9 68/23/9 210/47/9
f 26/63/10 24/22/10 209/23/10 35/47/10
f 82/39/8 19/38/8 22/33/8 83/32/8
f 17/12/11 18/13/11 142/14/11 100/15/11
f 24/22/10 25/12/10 34/15/10 209/23/10
f 23/45/8 27/21/8 47/56/8 44/42/8
f 114/12/8 13/13/8 26/14/8 16/15/8
f 142/47/8 28/23/8 29/27/8 100/37/8
f 100/37/8 29/27/8 30/50/8 103/38/8
f 30/50/8 33/51/8 68/45/8 65/44/8
f 103/38/8 30/50/8 65/44/8 72/33/8
f 32/26/8 209/16/8 34/19/8 33/51/8
f 33/51/8 34/19/8 210/21/8 68/45/8
f 31/15/8 35/14/8 209/16/8 32/26/8
f 22/63/11 19/22/11 103/23/11 72/47/11
f 21/12/9 22/13/9 72/14/9 65/15/9
f 18/63/7 15/22/7 28/23/7 142/47/7
f 64/21/7 57/20/7 147/61/7 158/56/7
f 58/44/7 60/45/7 45/42/7 150/43/7
f 40/62/7 53/63/7 54/47/7 85/46/7
f 9/22/7 44/12/7 50/15/7 48/23/7
f 50/36/12 63/46/12 210/47/12 68/37/12
f 61/16/7 183/17/7 184/18/7 62/19/7
f 85/46/7 54/47/7 51/37/7 42/36/7
f 63/14/7 49/41/7 183/17/7 61/16/7
f 53/63/7 9/22/7 48/23/7 54/47/7
f 62/18/10 64/20/10 212/21/10 211/19/10
f 59/33/7 58/44/7 150/43/7 52/34/7
f 64/56/8 60/42/8 76/45/8 212/21/8
f 63/41/10 61/17/10 71/16/10 210/14/10
f 62/19/7 184/18/7 57/20/7 64/21/7
f 61/17/10 62/18/10 211/19/10 71/16/10
f 60/45/7 64/21/7 158/56/7 45/42/7
f 74/38/7 67/50/7 75/44/7 108/33/7
f 69/26/7 71/16/7 211/19/7 70/51/7
f 70/51/7 211/19/7 212/21/7 76/45/7
f 68/15/7 210/14/7 71/16/7 69/26/7
f 59/32/11 55/39/11 74/38/11 108/33/11
f 58/43/8 59/34/8 108/33/8 75/44/8
f 99/21/10 56/20/10 41/61/10 97/56/10
f 91/32/10 93/33/10 88/34/10 153/35/10
f 92/44/10 94/45/10 151/42/10 152/43/10
f 119/62/10 14/63/10 89/47/10 122/46/10
f 118/36/10 87/37/10 90/38/10 117/39/10
f 86/43/12 98/34/12 72/33/12 103/44/12
f 83/13/10 40/40/10 85/41/10 98/14/10
f 95/16/10 42/17/10 43/18/10 96/19/10
f 122/46/10 89/47/10 87/37/10 118/36/10
f 98/14/10 85/41/10 42/17/10 95/16/10
f 94/39/8 92/36/8 175/37/8 176/38/8
f 14/63/10 81/22/10 84/23/10 89/47/10
f 96/18/9 99/20/9 108/21/9 74/19/9
f 93/33/10 92/44/10 152/43/10 88/34/10
f 99/32/8 94/39/8 176/38/8 108/33/8
f 98/41/9 95/17/9 73/16/9 72/14/9
f 117/39/10 90/38/10 93/33/10 91/32/10
f 96/19/10 43/18/10 56/20/10 99/21/10
f 87/36/7 89/46/7 142/47/7 106/37/7
f 95/17/9 96/18/9 74/19/9 73/16/9
f 94/45/10 99/21/10 97/56/10 151/42/10
f 142/47/10 100/23/10 101/27/10 106/37/10
f 102/50/10 105/51/10 176/45/10 175/44/10
f 107/38/10 102/50/10 175/44/10 141/33/10
f 104/26/10 73/16/10 74/19/10 105/51/10
f 105/51/10 74/19/10 108/21/10 176/45/10
f 103/15/10 72/14/10 73/16/10 104/26/10
f 93/32/7 90/39/7 107/38/7 141/33/7
f 92/36/8 93/46/8 141/47/8 175/37/8
f 89/56/12 84/42/12 100/45/12 142/21/12
f 134/21/9 91/20/9 153/61/9 132/56/9
f 187/32/9 128/33/9 159/34/9 186/35/9
f 127/44/9 129/45/9 116/42/9 149/43/9
f 12/62/9 13/63/9 125/47/9 192/46/9
f 182/36/9 124/37/9 126/38/9 113/39/9
f 123/18/12 133/20/12 142/21/12 28/19/12
f 192/46/9 125/47/9 124/37/9 182/36/9
f 129/22/8 127/12/8 140/15/8 172/23/8
f 13/63/9 114/22/9 121/23/9 125/47/9
f 126/39/10 124/36/10 139/37/10 204/38/10
f 131/18/11 134/20/11 141/21/11 107/19/11
f 128/33/9 127/44/9 149/43/9 159/34/9
f 134/63/8 129/22/8 172/23/8 141/47/8
f 133/41/11 130/17/11 106/16/11 142/14/11
f 113/39/9 126/38/9 128/33/9 187/32/9
f 131/19/9 117/18/9 91/20/9 134/21/9
f 124/36/10 125/46/10 35/47/10 139/37/10
f 130/17/11 131/18/11 107/19/11 106/16/11
f 121/17/12 123/18/12 28/19/12 31/16/12
f 31/23/9 28/15/9 137/26/9 135/27/9
f 35/47/9 31/23/9 135/27/9 139/37/9
f 139/37/9 135/27/9 136/50/9 204/38/9
f 136/50/9 138/51/9 172/45/9 140/44/9
f 204/38/9 136/50/9 140/44/9 177/33/9
f 137/26/9 106/16/9 107/19/9 138/51/9
f 138/51/9 107/19/9 141/21/9 172/45/9
f 28/15/9 142/14/9 106/16/9 137/26/9
f 128/32/10 126/39/10 204/38/10 177/33/10
f 127/12/8 128/13/8 177/14/8 140/15/8
f 125/41/12 121/17/12 31/16/12 35/14/12
f 169/14/12 97/13/12 41/40/12 52/41/12
f 163/19/12 165/16/12 150/17/12 45/18/12
f 186/35/12 159/32/12 160/33/12 154/34/12
f 185/43/12 157/44/12 161/45/12 148/42/12
f 149/39/12 116/36/12 156/37/12 155/38/12
f 156/43/7 168/34/7 141/33/7 172/44/7
f 132/46/12 153/62/12 88/63/12 168/47/12
f 154/34/12 160/33/12 157/44/12 185/43/12
f 168/47/12 88/63/12 152/22/12 166/23/12
f 165/42/9 163/43/9 76/44/9 75/45/9
f 161/42/10 157/43/10 207/44/10 208/45/10
f 167/43/11 169/34/11 108/33/11 176/44/11
f 164/21/12 163/19/12 45/18/12 158/20/12
f 169/56/9 165/42/9 75/45/9 108/21/9
f 168/56/11 166/42/11 175/45/11 141/21/11
f 167/15/12 151/12/12 97/13/12 169/14/12
f 157/43/10 160/34/10 177/33/10 207/44/10
f 165/16/12 169/14/12 52/41/12 150/17/12
f 116/36/12 132/46/12 168/47/12 156/37/12
f 155/42/7 156/43/7 172/44/7 140/45/7
f 140/38/12 172/37/12 173/27/12 170/50/12
f 177/33/12 140/38/12 170/50/12 207/44/12
f 207/44/12 170/50/12 171/51/12 208/45/12
f 171/51/12 174/26/12 75/16/12 76/19/12
f 208/45/12 171/51/12 76/19/12 212/21/12
f 174/26/12 176/15/12 108/14/12 75/16/12
f 172/37/12 141/47/12 175/23/12 173/27/12
f 164/56/10 161/42/10 208/45/10 212/21/10
f 163/43/9 164/34/9 212/33/9 76/44/9
f 160/56/7 155/42/7 140/45/7 177/21/7
f 201/33/11 162/34/11 147/35/11 57/32/11
f 20/63/11 196/47/11 49/46/11 46/62/11
f 12/40/11 192/41/11 193/14/11 188/13/11
f 11/12/11 191/15/11 194/23/11 10/22/11
f 182/17/11 113/18/11 190/19/11 189/16/11
f 190/18/7 200/20/7 177/21/7 204/19/7
f 187/20/11 186/61/11 154/56/11 200/21/11
f 198/45/11 185/42/11 148/43/11 199/44/11
f 188/13/11 193/14/11 191/15/11 11/12/11
f 200/21/11 154/56/11 185/42/11 198/45/11
f 197/39/9 195/36/9 71/37/9 211/38/9
f 194/22/12 191/12/12 209/15/12 34/23/12
f 196/47/11 195/37/11 183/36/11 49/46/11
f 200/41/8 198/17/8 207/16/8 177/14/8
f 10/22/11 194/23/11 196/47/11 20/63/11
f 199/44/11 148/43/11 162/34/11 201/33/11
f 191/12/12 193/13/12 35/14/12 209/15/12
f 197/38/11 201/33/11 57/32/11 184/39/11
f 113/18/11 187/20/11 200/21/11 190/19/11
f 189/17/7 190/18/7 204/19/7 139/16/7
f 139/16/11 204/19/11 205/51/11 202/26/11
f 35/14/11 139/16/11 202/26/11 209/15/11
f 209/15/11 202/26/11 203/27/11 34/23/11
f 203/27/11 206/50/11 211/38/11 71/37/11
f 34/23/11 203/27/11 71/37/11 210/47/11
f 204/19/11 177/21/11 207/45/11 205/51/11
f 196/63/12 194/22/12 34/23/12 210/47/12
f 195/36/9 196/46/9 210/47/9 71/37/9
f 193/41/7 189/17/7 139/16/7 35/14/7
