# mtllib module.mtl
v 0.437500 0.937500 0.062500
v 0.437500 0.062500 0.062500
v 0.437500 0.937500 0.937500
v 0.437500 0.062500 0.937500
v 0.500000 0.937500 0.062500
v 0.500000 0.062500 0.062500
v 0.500000 0.937500 0.937500
v 0.500000 0.062500 0.937500
vt 0.000000 1.000000
vt 1.000000 1.000000
vt 1.000000 0.000000
vt 0.000000 0.000000
vt 0.062500 1.000000
vt 0.062500 0.000000
vt 0.937500 1.000000
vt 0.937500 0.000000
vt 1.000000 0.062500
vt 0.000000 0.062500
vt 0.000000 0.937500
vt 1.000000 0.937500
vn -1.000000 0.000000 -0.000000
vn -0.000000 0.000000 1.000000
vn 1.000000 0.000000 0.000000
vn 0.000000 0.000000 -1.000000
vn 0.000000 1.000000 0.000000
vn 0.000000 -1.000000 0.000000
# usemtl casing.module
s off
g casing.front
f 8/1/3 6/2/3 5/3/3 7/4/3
g casing.module
f 2/1/1 4/2/1 3/3/1 1/4/1
f 4/5/2 8/1/2 7/4/2 3/6/2
f 6/2/4 2/7/4 1/8/4 5/3/4
f 1/9/5 3/10/5 7/4/5 5/3/5
f 6/2/6 8/1/6 4/11/6 2/12/6
